<?xml version="1.0" standalone="no"?>
<!DOCTYPE svg PUBLIC "-//W3C//DTD SVG 20010904//EN" "http://www.w3.org/TR/2001/REC-SVG-20010904/DTD/svg10.dtd">
<svg xmlns="http://www.w3.org/2000/svg" version="1.0" width="720.000000pt" height="1080.000000pt" viewBox="0 0 720.000000 1080.000000" preserveAspectRatio="xMidYMid meet">
<metadata>
Created by potrace 1.16, written by Peter Selinger 2001-2019
<meta name="Producer" content="Online-Convert"/></metadata>
<g transform="translate(0.000000,1080.000000) scale(0.100000,-0.100000)" fill="#000000" stroke="none">
<path d="M4679 9806 c-20 -7 -56 -24 -80 -38 -150 -84 -539 -310 -619 -358 -175 -105 -1027 -599 -1220 -707 -69 -38 -201 -115 -295 -170 -93 -55 -298 -173 -455 -263 -157 -89 -397 -229 -535 -310 -137 -81 -293 -171 -345 -200 -122 -68 -404 -235 -452 -267 -21 -14 -46 -44 -57 -67 -19 -40 -20 -77 -26 -2016 l-5 -1976 27 -25 c40 -37 177 -119 198 -119 10 0 42 12 71 27 52 26 54 26 67 8 23 -30 65 -13 260 104 100 60 305 179 455 266 151 86 302 174 335 196 l62 39 6 -116 c7 -116 7 -117 40 -150 30 -29 287 -168 652 -353 103 -53 111 -55 201 -59 85 -4 98 -2 162 25 38 16 132 68 209 115 77 47 230 139 340 204 110 65 219 136 242 157 l43 40 0 74 c0 70 -2 77 -29 102 -17 16 -100 63 -186 105 -86 43 -155 82 -153 88 7 19 119 56 208 69 218 32 436 -32 625 -181 85 -68 121 -109 151 -175 60 -128 11 -228 -172 -352 -56 -38 -344 -213 -554 -335 -410 -240 -602 -318 -782 -318 -77 0 -229 31 -292 59 -26 11 -84 42 -129 69 -45 27 -127 74 -182 104 -350 195 -364 200 -515 200 -161 1 -228 -24 -555 -202 -372 -202 -482 -292 -521 -429 -31 -104 -17 -167 48 -227 81 -74 142 -92 369 -104 179 -9 232 -20 328 -69 23 -12 52 -21 64 -19 14 2 -7 15 -65 40 -130 57 -185 68 -329 68 -139 0 -192 7 -182 23 4 7 0 8 -12 3 -52 -19 -180 62 -208 132 -33 82 6 213 90 298 60 63 212 159 456 290 293 158 368 184 523 184 141 0 191 -20 539 -220 99 -57 198 -114 220 -126 140 -79 354 -105 520 -64 161 40 323 120 768 382 383 226 478 288 541 358 107 119 101 229 -21 360 -143 155 -364 264 -563 276 -121 8 -261 -15 -342 -56 -32 -15 -60 -25 -63 -20 -11 18 87 64 198 92 148 37 339 14 503 -62 108 -50 189 -106 268 -186 109 -110 135 -190 101 -309 -20 -69 -60 -123 -132 -180 -100 -78 -761 -468 -984 -580 -200 -101 -357 -143 -492 -132 -143 12 -310 81 -539 223 -217 136 -316 184 -417 207 -172 40 -374 -20 -680 -202 -64 -38 -160 -95 -214 -126 -55 -32 -114 -70 -132 -86 -17 -16 -36 -25 -40 -21 -5 4 -5 2 -2 -4 3 -6 -7 -23 -23 -39 -44 -42 -73 -119 -67 -178 13 -138 167 -217 426 -217 116 0 188 -17 296 -71 44 -22 71 -32 60 -24 -35 29 -133 75 -189 89 -30 8 -112 17 -182 21 -245 12 -333 46 -385 147 -35 69 -17 142 56 226 53 61 102 93 420 272 190 107 243 135 316 162 79 30 92 32 224 32 137 1 142 0 217 -32 43 -19 153 -79 245 -134 311 -187 415 -234 571 -258 72 -12 192 -2 297 25 67 17 243 101 410 195 61 34 155 87 210 118 119 66 278 159 435 255 190 116 253 173 302 275 26 53 30 72 26 120 -13 182 -225 378 -510 472 -190 62 -398 44 -565 -51 l-54 -30 -107 56 c-58 31 -130 71 -159 88 l-53 32 0 111 0 112 113 62 c113 64 488 283 672 393 55 33 179 104 275 157 212 117 644 369 722 421 31 21 58 44 61 51 2 7 14 -7 24 -32 24 -55 69 -110 90 -110 9 0 2 10 -17 26 -17 15 -39 43 -49 63 -24 48 -72 205 -112 366 -17 72 -36 137 -41 145 -7 12 -8 10 -4 -5 3 -11 21 -85 40 -165 19 -80 42 -165 50 -189 32 -88 23 -99 -154 -202 -52 -31 -183 -108 -290 -171 -187 -110 -240 -140 -395 -225 -74 -40 -130 -72 -508 -294 -128 -75 -295 -171 -372 -214 -224 -125 -557 -316 -875 -501 l-294 -172 -1 -37 c0 -49 11 -66 13 -19 1 21 7 43 14 50 7 6 72 45 143 86 72 42 252 146 400 233 308 181 457 265 467 265 5 0 8 -43 8 -96 0 -91 1 -97 28 -123 15 -15 65 -48 112 -73 47 -25 132 -71 190 -102 58 -32 161 -84 230 -117 156 -75 190 -100 190 -140 0 -51 -53 -92 -302 -234 -131 -74 -285 -164 -343 -200 -216 -133 -284 -157 -384 -131 -59 15 -302 133 -585 286 -82 44 -158 82 -167 85 -25 8 -32 56 -27 165 3 49 2 90 -1 90 -4 0 -56 -30 -116 -66 -61 -36 -200 -118 -310 -181 -110 -64 -220 -128 -245 -143 -253 -153 -462 -271 -477 -268 -17 3 -18 84 -23 1888 -3 1037 -4 1890 -2 1896 3 12 153 102 462 279 113 65 275 159 360 209 85 51 277 162 425 246 149 84 365 207 480 273 116 67 278 159 360 205 83 46 207 119 277 162 70 44 150 91 179 106 29 14 157 88 283 163 195 116 730 422 901 516 28 15 91 50 140 78 169 94 204 112 212 103 4 -4 8 -678 8 -1496 0 -1148 3 -1484 12 -1467 19 36 25 1 19 -100 -12 -168 -12 -163 28 -252 77 -169 167 -345 161 -315 -5 27 5 47 76 155 137 208 217 307 272 336 38 19 42 13 17 -29 -11 -20 -33 -73 -49 -119 -16 -46 -41 -113 -56 -149 -42 -97 -56 -159 -49 -212 l6 -47 -88 -89 c-99 -98 -129 -121 -177 -132 -28 -7 -29 -8 -6 -9 38 -2 113 51 199 139 l78 79 27 -61 c27 -59 28 -66 22 -182 -3 -67 -18 -191 -33 -276 -14 -85 -30 -177 -35 -205 -5 -27 -12 -156 -15 -285 -7 -248 1 -397 37 -654 14 -105 19 -197 19 -365 0 -124 7 -330 17 -456 l17 -231 -53 -49 c-29 -28 -58 -55 -64 -61 -21 -18 -181 -114 -192 -114 -16 0 -63 -47 -81 -82 -13 -26 -14 -38 -5 -69 14 -47 49 -73 129 -95 51 -14 70 -15 116 -6 64 13 165 52 279 107 67 34 77 41 76 64 l-1 26 -7 -25 c-5 -19 -30 -35 -121 -76 -154 -70 -200 -84 -279 -84 -106 1 -174 41 -187 111 l-7 34 23 -28 c33 -41 91 -67 150 -67 56 0 182 38 245 74 49 28 154 69 176 68 13 0 16 16 18 96 1 53 5 107 8 120 3 13 0 34 -7 46 -9 19 -7 54 14 192 15 93 35 216 46 274 20 107 26 280 11 370 -5 33 -1 70 16 137 30 118 63 316 63 373 0 71 16 34 35 -80 17 -110 53 -262 103 -440 16 -58 33 -134 37 -170 4 -36 20 -137 35 -225 28 -155 46 -273 70 -460 17 -128 3 -241 -49 -395 -20 -59 -35 -124 -38 -172 -6 -77 -6 -77 26 -107 58 -55 170 -53 244 3 65 49 87 102 87 211 -1 119 -24 282 -45 304 -14 16 -14 34 0 189 35 404 29 606 -27 820 l-22 82 22 193 c13 105 28 233 34 282 15 127 14 434 -1 525 -7 41 -50 185 -95 320 -102 307 -102 328 -21 575 49 149 48 148 179 252 141 113 299 262 332 314 22 35 43 109 30 109 -3 0 -11 -21 -17 -46 -15 -60 -120 -171 -314 -334 -164 -137 -177 -152 -195 -215 -13 -46 -13 -47 -49 -40 -83 16 -124 78 -123 186 1 139 78 244 234 317 79 38 156 102 170 143 4 11 9 10 27 -5 33 -30 25 -3 -10 30 -17 16 -49 54 -72 84 -23 30 -70 85 -104 122 -57 62 -65 76 -94 170 -17 57 -40 120 -51 141 -16 33 -17 38 -3 43 25 10 41 -2 83 -58 22 -30 112 -120 200 -201 170 -156 263 -252 293 -302 11 -16 19 -25 19 -19 0 7 -20 38 -43 70 -43 58 -81 96 -314 309 -66 61 -132 129 -147 152 -15 23 -63 76 -107 118 -106 99 -144 111 -314 101 -66 -5 -147 -7 -180 -6 -34 0 -72 -3 -85 -8 -38 -14 -80 -61 -106 -117 -20 -42 -24 -65 -23 -142 1 -79 -2 -99 -25 -150 -15 -32 -42 -74 -60 -93 -55 -57 -86 -130 -86 -200 0 -53 4 -67 35 -111 31 -45 35 -59 35 -112 0 -54 3 -64 30 -92 l30 -31 -32 -45 c-17 -24 -69 -100 -115 -168 l-83 -125 -86 179 c-63 130 -86 188 -85 214 1 20 4 80 7 134 4 79 2 103 -10 122 -14 22 -16 174 -16 1484 l0 1460 -21 11 c-14 8 -24 8 -32 1 -7 -5 -69 -41 -137 -79 -69 -38 -147 -82 -175 -97 -272 -151 -727 -410 -880 -500 -104 -62 -247 -144 -316 -182 -69 -39 -163 -95 -210 -125 -46 -30 -140 -85 -209 -123 -69 -37 -161 -89 -205 -115 -138 -81 -403 -233 -585 -335 -188 -106 -567 -325 -665 -385 -33 -20 -130 -76 -215 -125 -303 -173 -445 -258 -457 -273 -10 -13 -13 -405 -13 -1886 l0 -1871 -49 -27 c-53 -30 -92 -36 -109 -15 -7 8 -11 659 -14 1997 l-3 1985 25 49 c29 57 39 64 335 233 116 66 356 205 535 308 179 103 370 212 425 243 55 31 165 94 245 142 80 47 181 106 225 130 44 24 123 68 175 98 52 31 280 161 505 290 226 129 475 272 555 319 201 118 754 437 875 505 55 32 126 69 158 83 54 25 59 26 82 11 45 -29 56 -58 60 -156 2 -50 6 -95 10 -98 4 -4 5 41 3 100 -3 107 -3 107 -37 142 -19 20 -43 36 -52 36 -10 0 -31 11 -47 25 -31 26 -92 55 -114 55 -7 -1 -29 -7 -49 -14z m1241 -2836 c99 -68 119 -107 120 -237 0 -68 3 -83 15 -83 9 0 17 6 19 13 21 75 33 100 50 109 29 16 56 -21 56 -79 0 -36 -6 -50 -30 -74 -19 -20 -36 -28 -47 -25 -13 4 -24 -4 -38 -26 -52 -82 -55 -91 -55 -183 0 -98 14 -135 51 -135 20 0 20 -1 -3 -32 -52 -74 -143 -156 -186 -167 -82 -22 -144 28 -144 117 0 55 25 122 45 122 8 0 26 9 41 21 20 16 26 29 26 60 0 36 2 39 28 40 15 0 45 7 67 15 29 10 32 12 10 8 -16 -3 -71 -8 -122 -11 l-92 -5 -59 61 c-100 104 -133 205 -102 320 5 20 12 48 15 64 6 31 25 34 69 12 33 -17 45 -13 26 10 -7 8 -30 18 -51 21 -22 4 -39 8 -39 9 0 22 25 38 89 60 50 16 88 36 106 55 l27 29 27 -25 c14 -14 51 -43 81 -64z m494 -277 c54 -61 136 -166 136 -175 0 -11 -70 -88 -80 -88 -4 0 -10 12 -13 28 -10 48 -54 196 -70 235 -9 20 -14 37 -11 37 2 0 19 -17 38 -37z m-696 -394 c29 -10 30 -11 16 -37 -43 -82 -17 -189 53 -219 32 -13 45 -14 83 -4 59 16 96 46 169 134 48 59 68 76 103 86 23 7 61 22 83 34 l40 20 -39 -43 c-52 -58 -87 -139 -93 -215 -9 -110 34 -184 120 -205 l45 -12 -19 -55 c-29 -86 -52 -222 -45 -276 3 -27 28 -118 56 -202 29 -85 50 -162 48 -171 -4 -23 -86 -78 -154 -104 -186 -69 -465 -42 -599 59 -70 53 -81 77 -67 143 24 108 44 303 37 358 -4 30 -18 81 -32 114 -35 83 -39 139 -15 211 48 142 113 318 132 355 22 43 30 46 78 29z m-37 -2944 c52 0 72 4 88 19 12 11 21 15 21 10 0 -5 -14 -90 -30 -189 -16 -99 -30 -193 -30 -210 0 -39 -34 -95 -59 -95 -26 0 -39 19 -43 65 -2 32 -8 42 -33 55 -16 8 -31 15 -32 15 -2 0 -33 335 -33 359 0 13 6 12 43 -7 31 -16 59 -22 108 -22z m517 -100 c38 -14 118 -25 148 -19 18 3 42 15 53 26 l22 19 -6 -83 c-3 -46 -11 -136 -17 -201 -5 -65 -7 -151 -3 -192 8 -90 -5 -104 -37 -38 -19 40 -28 48 -50 48 -14 -1 -24 3 -22 7 7 12 -34 10 -57 -2 -18 -10 -19 -7 -19 57 0 37 -9 136 -20 218 -17 132 -26 253 -13 188 2 -12 12 -24 21 -28z m-455 -435 c-8 -53 -10 -55 -48 -68 -22 -7 -84 -33 -138 -58 -167 -78 -251 -91 -328 -51 -75 40 -74 103 1 142 29 15 31 15 57 -14 34 -36 117 -65 144 -51 10 6 33 24 51 41 18 17 52 47 76 66 24 20 41 42 38 49 -3 8 4 11 22 8 75 -10 75 -10 99 25 13 19 24 50 25 70 1 20 3 5 5 -34 2 -38 0 -95 -4 -125z m695 -170 c6 -63 7 -140 2 -170 -4 -30 -5 -60 -3 -67 3 -6 -17 -34 -44 -61 -65 -68 -143 -89 -216 -59 -37 16 -51 32 -62 67 l-8 25 28 -27 c30 -31 93 -44 157 -34 56 9 93 30 118 68 l22 33 -29 -32 c-31 -35 -96 -63 -149 -63 -47 0 -110 27 -128 55 -14 22 -14 31 -1 97 17 78 25 96 25 54 0 -31 21 -41 99 -52 99 -13 131 28 131 165 0 43 4 60 15 65 11 4 15 21 16 58 1 46 2 49 9 23 5 -16 13 -82 18 -145z"/>
<path d="M6012 9135 c-145 -85 -348 -202 -452 -260 -177 -99 -190 -108 -196 -139 -3 -18 -4 -251 -2 -518 2 -411 5 -488 18 -503 15 -18 209 -151 235 -161 8 -3 55 19 106 50 100 61 109 64 109 41 0 -9 11 -42 25 -75 32 -76 32 -80 -7 -44 -18 17 -42 36 -53 43 -11 7 2 -7 28 -33 27 -25 52 -46 56 -46 5 0 15 21 24 48 9 26 29 85 45 131 l29 83 119 76 c133 84 274 169 379 228 l70 40 6 89 c4 50 7 282 8 516 1 327 -2 429 -11 440 -13 16 -220 132 -254 142 -13 5 -97 -39 -282 -148z m379 83 c55 -28 99 -54 99 -57 0 -8 -3 -10 -400 -248 -524 -313 -509 -303 -516 -338 -3 -16 -4 -244 -2 -506 l3 -476 -75 50 c-41 27 -85 59 -97 70 l-23 20 0 514 c0 480 1 514 18 521 9 4 37 19 62 33 25 15 124 72 220 127 179 102 350 201 500 290 47 28 91 51 99 51 7 1 58 -22 112 -51z m152 -153 c7 -83 1 -781 -9 -896 l-6 -65 -101 -59 c-86 -49 -284 -170 -427 -260 -31 -20 -39 -34 -73 -139 -21 -64 -40 -116 -42 -116 -1 0 -15 34 -30 75 -15 41 -30 73 -34 71 -3 -2 -50 -29 -104 -61 -54 -32 -101 -55 -104 -51 -16 16 -22 168 -22 587 l-1 446 133 78 c415 246 564 335 667 401 63 40 122 71 130 71 11 -2 17 -22 23 -82z"/>
<path d="M6358 8812 c-8 -9 -30 -43 -47 -75 l-33 -58 -33 26 c-19 14 -41 25 -49 25 -28 0 -17 -39 19 -71 l34 -30 -35 -70 c-20 -38 -34 -77 -32 -86 7 -37 29 -21 62 46 20 38 41 73 47 76 6 4 28 -9 49 -30 21 -21 43 -34 49 -31 21 13 11 43 -29 82 -22 21 -40 42 -40 45 0 4 16 33 35 65 35 57 43 88 26 98 -4 3 -15 -2 -23 -12z"/>
<path d="M5855 8488 c-21 -35 -40 -65 -42 -67 -2 -3 -19 3 -38 12 -20 9 -40 17 -45 17 -20 0 -9 -39 15 -58 32 -25 31 -33 -5 -111 -19 -41 -27 -68 -21 -74 14 -14 29 0 57 56 41 81 41 81 84 47 47 -37 70 -39 70 -5 0 18 -11 32 -40 51 -22 15 -40 28 -40 30 0 2 16 30 35 63 19 32 35 69 35 80 0 39 -27 21 -65 -41z"/>
<path d="M6155 8237 c-67 -23 -107 -47 -169 -106 -56 -54 -95 -116 -96 -153 0 -31 15 -19 55 42 21 33 42 60 46 60 3 0 9 -19 13 -42 9 -55 40 -88 82 -88 73 0 132 94 121 195 -5 53 -5 55 19 55 14 0 40 -7 59 -14 32 -14 36 -13 45 3 6 13 5 24 -4 36 -17 24 -115 30 -171 12z m13 -92 c9 -75 -31 -145 -83 -145 -20 0 -29 8 -41 35 -26 64 -16 86 62 125 48 24 58 21 62 -15z"/>
<path d="M4050 7839 c-52 -28 -103 -58 -112 -67 -9 -9 -34 -69 -56 -132 -22 -63 -50 -140 -62 -170 -12 -30 -49 -129 -81 -220 -32 -91 -76 -216 -99 -279 -22 -63 -39 -119 -37 -124 2 -6 29 61 60 149 31 87 82 229 112 314 31 85 80 223 110 305 30 86 58 151 66 153 8 1 31 -13 51 -30 l38 -33 -29 -95 c-44 -143 -245 -714 -280 -795 -13 -28 -24 -78 -26 -115 l-4 -65 9 61 c4 33 21 90 35 125 37 87 120 323 224 631 l86 257 105 49 c58 27 116 53 129 57 21 6 18 10 -38 41 -34 19 -71 34 -84 33 -12 0 -65 -23 -117 -50z m172 16 c20 -14 43 -25 50 -25 7 0 -40 -25 -105 -55 l-119 -54 -39 26 c-21 14 -39 29 -39 32 0 9 181 100 200 100 9 1 32 -10 52 -24z"/>
<path d="M4322 7441 c-2 -303 1 -382 11 -378 6 3 29 12 50 21 l37 16 0 -105 0 -105 -50 -25 -50 -25 0 -128 c0 -121 -1 -130 -22 -149 -30 -27 -151 -93 -170 -93 -18 0 -26 61 -24 172 0 38 -3 68 -7 68 -4 0 -85 -45 -181 -100 -95 -55 -178 -100 -184 -100 -8 0 -13 22 -14 63 l-2 62 -3 -58 -4 -57 -60 40 -59 41 -1 242 c0 133 -3 250 -7 259 -4 10 -7 -132 -7 -315 0 -316 -1 -335 -22 -402 -70 -218 -207 -399 -366 -482 -43 -23 -65 -28 -129 -28 -89 0 -114 13 -164 89 -51 76 -68 184 -67 411 1 277 37 453 130 642 38 77 60 106 112 154 132 122 273 174 364 135 42 -17 101 -86 122 -140 11 -30 14 -33 10 -11 -16 85 -115 177 -242 225 -230 87 -513 -186 -612 -590 -31 -127 -41 -225 -41 -398 0 -169 21 -294 60 -356 49 -80 183 -164 287 -181 157 -25 369 139 492 382 42 83 81 223 81 289 l0 53 60 -39 c32 -22 69 -40 82 -40 13 0 59 21 102 46 l78 46 32 -30 c17 -17 62 -49 100 -72 80 -48 85 -48 190 11 107 60 106 59 104 207 -1 71 2 127 8 129 5 2 27 14 49 26 l40 23 3 98 c3 114 -4 132 -67 160 l-41 19 -3 331 -2 331 -3 -384z m-995 -83 l58 -23 -53 -7 c-72 -11 -178 -67 -262 -139 -65 -55 -75 -70 -129 -182 -69 -142 -104 -272 -120 -447 -24 -260 -6 -463 52 -581 l32 -67 -46 24 c-132 66 -179 188 -179 463 0 173 13 277 51 416 56 206 165 384 293 481 112 85 197 102 303 62z m763 -773 l0 -106 -22 12 c-13 6 -52 32 -87 57 l-63 45 33 20 c19 11 54 33 79 48 25 16 48 29 53 29 4 0 7 -47 7 -105z"/>
<path d="M4071 7305 c-24 -71 -70 -204 -103 -294 -32 -90 -56 -166 -54 -169 3 -2 48 19 100 48 66 35 98 58 101 73 3 12 4 123 3 247 l-3 225 -44 -130z m17 -359 c-36 -29 -161 -89 -156 -74 30 78 151 430 161 465 11 42 12 25 15 -163 3 -207 2 -209 -20 -228z"/>
<path d="M3187 7020 c-13 -11 -38 -50 -53 -87 l-29 -68 -3 -321 c-2 -203 1 -330 7 -347 13 -33 50 -52 85 -43 34 8 93 71 119 126 20 42 22 65 25 321 4 294 -3 367 -39 413 -25 32 -75 35 -112 6z m97 -14 c41 -40 48 -111 43 -400 -3 -165 -9 -275 -16 -300 -17 -54 -96 -136 -130 -136 -32 0 -44 8 -59 37 -9 17 -9 22 3 26 39 15 45 57 55 381 8 220 8 321 0 335 -16 31 -12 40 23 61 41 26 53 25 81 -4z m-115 -387 c-9 -292 -16 -346 -45 -370 -14 -11 -15 21 -12 302 4 305 4 315 27 364 23 48 24 49 31 24 4 -15 4 -159 -1 -320z"/>
<path d="M2329 6900 c-42 -21 -101 -54 -133 -72 l-56 -34 -56 -134 c-31 -74 -76 -187 -101 -250 -44 -109 -145 -357 -220 -538 -19 -46 -33 -86 -30 -88 2 -2 12 17 22 43 10 27 37 91 61 144 24 52 77 181 118 285 114 293 208 514 218 514 4 0 27 -12 51 -27 23 -15 43 -28 45 -29 3 -2 -65 -180 -227 -587 -39 -99 -96 -235 -127 -303 l-57 -124 -1 -110 c0 -60 -4 -110 -9 -110 -5 0 -31 12 -58 27 -59 32 -64 45 -56 162 4 52 2 78 -3 66 -5 -11 -9 -59 -9 -107 -1 -67 3 -90 15 -103 17 -16 127 -75 141 -75 5 0 58 29 118 65 60 36 115 65 123 65 8 0 54 -24 101 -54 48 -30 94 -58 103 -61 17 -7 175 69 224 108 l27 21 -6 117 -5 117 40 18 c21 10 43 25 49 35 5 10 9 63 9 117 l0 100 -35 31 c-20 17 -40 31 -45 31 -6 0 -10 131 -10 348 0 388 6 355 -70 399 -60 35 -70 35 -151 -7z m164 -18 l42 -28 0 -387 c0 -213 3 -387 7 -387 16 0 60 21 55 26 -3 3 -15 1 -26 -6 -19 -10 -21 -8 -21 20 0 26 2 29 18 21 51 -31 52 -32 52 -150 l0 -111 -45 -22 -45 -22 0 -122 c0 -122 0 -123 -27 -142 -56 -39 -192 -102 -199 -91 -3 6 -10 61 -14 122 l-8 112 2 -113 c0 -61 0 -112 -1 -112 -3 0 -124 76 -147 93 -18 12 -14 17 57 58 42 24 77 48 77 52 0 4 -19 -3 -42 -17 -24 -13 -90 -51 -148 -84 -58 -33 -132 -76 -165 -96 l-60 -37 -7 58 c-12 99 1 179 45 273 21 47 82 191 134 320 98 241 108 267 191 480 47 121 50 126 93 149 95 51 213 122 193 117 -11 -3 -65 -31 -120 -61 -54 -30 -107 -58 -117 -61 -16 -5 -107 43 -107 57 0 3 19 15 43 27 23 12 76 40 117 63 85 46 106 46 173 1z"/>
<path d="M2235 6242 c-38 -103 -90 -240 -116 -305 -36 -90 -43 -117 -31 -112 10 3 61 31 114 61 67 38 100 62 103 77 3 12 4 122 3 244 l-3 221 -70 -186z m56 -275 c-7 -17 -29 -36 -63 -53 -29 -15 -70 -38 -91 -51 l-39 -24 7 23 c4 13 40 109 80 213 40 105 81 214 91 243 l19 53 3 -189 c1 -107 -2 -201 -7 -215z"/>
<path d="M3583 5891 c-64 -36 -62 -28 -56 -194 5 -157 13 -187 39 -152 10 14 13 34 9 70 -3 28 -1 57 5 65 9 12 18 7 54 -35 38 -42 46 -47 60 -36 24 20 20 37 -19 80 l-35 39 25 43 c58 102 10 172 -82 120z"/>
<path d="M3329 5755 c-55 -40 -83 -104 -87 -200 -2 -67 0 -85 17 -112 31 -49 72 -46 125 10 49 51 76 122 76 197 0 115 -55 159 -131 105z m65 -57 c38 -54 1 -209 -52 -216 -39 -6 -52 15 -52 80 0 68 18 119 51 142 30 21 35 20 53 -6z"/>
<path d="M3100 5623 c-8 -4 -32 -17 -52 -30 l-38 -23 0 -155 c0 -155 6 -179 35 -155 10 9 15 33 15 76 0 77 13 82 56 24 31 -42 43 -47 62 -28 19 19 15 31 -24 76 -19 23 -32 42 -27 42 27 0 57 99 42 139 -15 38 -34 47 -69 34z"/>
<path d="M2805 5461 l-50 -28 -3 -150 c-2 -114 1 -153 11 -161 25 -21 41 4 43 67 0 34 4 65 8 69 4 4 24 -12 44 -36 39 -44 65 -53 76 -26 6 16 -22 72 -48 93 -12 10 -11 19 10 54 29 51 31 107 6 130 -25 23 -38 21 -97 -12z"/>
<path d="M2585 5339 c-27 -16 -57 -33 -65 -38 -12 -7 -16 -38 -18 -161 -1 -85 2 -158 6 -162 11 -11 159 69 166 89 10 25 -22 25 -73 -1 l-51 -26 0 45 c0 44 1 45 50 70 49 25 64 50 35 61 -8 3 -31 -3 -50 -15 l-35 -20 0 42 c0 40 3 43 53 72 34 20 53 38 55 53 5 30 -13 28 -73 -9z"/>
<path d="M1796 2297 c-27 -17 -59 -39 -71 -47 -12 -8 -47 -30 -79 -49 -74 -44 -85 -60 -80 -124 8 -103 15 -136 35 -161 11 -13 77 -63 147 -109 70 -47 138 -97 152 -112 43 -47 63 -48 135 -13 57 28 68 31 86 20 12 -8 23 -11 26 -9 8 9 -34 27 -70 29 l-34 3 -2 57 c-2 46 2 61 18 77 26 26 60 27 86 1 11 -11 56 -44 100 -72 53 -36 82 -61 86 -78 6 -21 7 -22 8 -4 1 21 -33 58 -81 89 -36 22 -35 29 3 48 31 14 34 14 94 -19 34 -19 66 -34 71 -34 5 0 -24 18 -64 40 -41 22 -78 38 -83 35 -5 -3 -18 -1 -29 5 -15 8 -20 21 -20 48 0 54 23 83 65 80 19 -1 32 -5 29 -9 -4 -7 18 -23 74 -55 l27 -16 -25 19 c-51 37 -60 52 -60 97 0 83 0 83 -232 194 -117 56 -225 102 -238 102 -14 0 -47 -15 -74 -33z"/>
</g>
</svg>
